# MagicaVoxel @ Ephtracy

# group
o 

# material
mtllib Guineapig.mtl
usemtl palette

# normals
vn -1 0 0
vn 1 0 0
vn 0 0 1
vn 0 0 -1
vn 0 -1 0
vn 0 1 0

# texcoords
vt 0.0605469 0.5
vt 0.0644531 0.5
vt 0.232422 0.5
vt 0.958984 0.5
vt 0.994141 0.5

# verts
v -0.8 0.2 0.7
v -0.8 0.2 -1
v -0.8 0.7 0.7
v -0.8 0.7 0.6
v -0.8 0.8 0.6
v -0.8 0.8 0.4
v -0.8 0.9 0.4
v -0.8 0.9 0.3
v -0.8 1.2 0.7
v -0.8 1.2 0.3
v -0.8 1.2 -1
v -0.5 0 0.6
v -0.5 0 0.1
v -0.5 0 -0.3
v -0.5 0 -0.8
v -0.5 0.2 0.6
v -0.5 0.2 0.4
v -0.5 0.2 0.1
v -0.5 0.2 -0.3
v -0.5 0.2 -0.8
v -0.5 0.6 1
v -0.5 0.6 0.7
v -0.5 1.2 0.7
v -0.5 1.2 0.6
v -0.5 1.2 0.4
v -0.5 1.5 0.9
v -0.5 1.5 0.4
v -0.5 1.7 1
v -0.5 1.7 0.9
v 0.1 0 0.6
v 0.1 0 0.1
v 0.1 0 -0.3
v 0.1 0 -0.8
v 0.1 0.1 0.5
v 0.1 0.1 0.2
v 0.1 0.2 0.6
v 0.1 0.2 0.5
v 0.1 0.2 0.2
v 0.1 0.2 0.1
v 0.1 0.2 -0.3
v 0.1 0.2 -0.8
v 0.2 1.5 1
v 0.2 1.5 0.9
v 0.2 1.7 1
v 0.2 1.7 0.9
v -0.3 1.5 1
v -0.3 1.5 0.9
v -0.3 1.7 1
v -0.3 1.7 0.9
v -0.2 0 0.6
v -0.2 0 0.1
v -0.2 0 -0.3
v -0.2 0 -0.8
v -0.2 0.2 0.6
v -0.2 0.2 0.4
v -0.2 0.2 0.1
v -0.2 0.2 -0.3
v -0.2 0.2 -0.8
v 0.4 0 0.6
v 0.4 0 0.1
v 0.4 0 -0.3
v 0.4 0 -0.8
v 0.4 0.1 0.6
v 0.4 0.1 0.2
v 0.4 0.2 0.6
v 0.4 0.2 0.2
v 0.4 0.2 0.1
v 0.4 0.2 -0.3
v 0.4 0.2 -0.8
v 0.4 0.6 1
v 0.4 0.6 0.7
v 0.4 1.2 0.7
v 0.4 1.2 0.6
v 0.4 1.2 0.4
v 0.4 1.5 0.9
v 0.4 1.5 0.4
v 0.4 1.7 1
v 0.4 1.7 0.9
v 0.7 0.2 0.7
v 0.7 0.2 0.6
v 0.7 0.2 -1
v 0.7 0.4 0.6
v 0.7 0.4 0.5
v 0.7 0.6 0.2
v 0.7 0.6 0.1
v 0.7 0.7 0.1
v 0.7 0.7 -0.3
v 0.7 0.8 -0.3
v 0.7 0.8 -0.4
v 0.7 0.9 0.6
v 0.7 0.9 0.5
v 0.7 1.2 0.7
v 0.7 1.2 0.6
v 0.7 1.2 0.2
v 0.7 1.2 -0.4
v 0.7 1.2 -1
v -0.5 0.6 1
v -0.5 1.7 1
v -0.4 1.1 1
v -0.4 1.3 1
v -0.3 0.6 1
v -0.3 1 1
v -0.3 1.5 1
v -0.3 1.7 1
v -0.2 0.7 1
v -0.2 0.8 1
v -0.2 0.9 1
v -0.2 1.1 1
v -0.2 1.3 1
v -0.2 1.5 1
v -0.1 0.8 1
v -0.1 0.9 1
v -0.1 1 1
v -0.1 1.1 1
v 5.96046e-08 0.8 1
v 5.96046e-08 0.9 1
v 5.96046e-08 1.1 1
v 5.96046e-08 1.4 1
v 0.1 0.7 1
v 0.1 0.8 1
v 0.1 0.9 1
v 0.1 1 1
v 0.1 1.1 1
v 0.1 1.3 1
v 0.1 1.4 1
v 0.1 1.5 1
v 0.2 0.6 1
v 0.2 1 1
v 0.2 1.5 1
v 0.2 1.7 1
v 0.3 1.1 1
v 0.3 1.3 1
v 0.4 0.6 1
v 0.4 1.7 1
v -0.8 0.2 0.7
v -0.8 0.7 0.7
v -0.8 1.2 0.7
v -0.7 0.7 0.7
v -0.7 1.2 0.7
v -0.5 0.6 0.7
v -0.5 1.2 0.7
v 0.4 0.6 0.7
v 0.4 1.2 0.7
v 0.7 0.2 0.7
v 0.7 1.2 0.7
v -0.5 0 0.6
v -0.5 0.2 0.6
v -0.2 0 0.6
v -0.2 0.2 0.6
v 0.1 0 0.6
v 0.1 0.2 0.6
v 0.2 0.1 0.6
v 0.2 0.2 0.6
v 0.4 0 0.6
v 0.4 0.1 0.6
v 0.4 0.2 0.6
v -0.5 0 -0.3
v -0.5 0.2 -0.3
v -0.2 0 -0.3
v -0.2 0.2 -0.3
v 0.1 0 -0.3
v 0.1 0.2 -0.3
v 0.4 0 -0.3
v 0.4 0.2 -0.3
v -0.5 1.5 0.9
v -0.5 1.7 0.9
v -0.3 1.5 0.9
v -0.3 1.7 0.9
v 0.2 1.5 0.9
v 0.2 1.7 0.9
v 0.4 1.5 0.9
v 0.4 1.7 0.9
v -0.5 1.2 0.4
v -0.5 1.5 0.4
v 5.96046e-08 1.2 0.4
v 0.4 1.2 0.4
v 0.4 1.5 0.4
v -0.5 0 0.1
v -0.5 0.2 0.1
v -0.2 0 0.1
v -0.2 0.2 0.1
v 0.1 0 0.1
v 0.1 0.2 0.1
v 0.4 0 0.1
v 0.4 0.2 0.1
v -0.5 0 -0.8
v -0.5 0.2 -0.8
v -0.2 0 -0.8
v -0.2 0.2 -0.8
v 0.1 0 -0.8
v 0.1 0.2 -0.8
v 0.4 0 -0.8
v 0.4 0.2 -0.8
v -0.8 0.2 -1
v -0.8 1.2 -1
v 5.96046e-08 0.2 -1
v 5.96046e-08 1.2 -1
v 0.7 0.2 -1
v 0.7 1.2 -1
v -0.5 0 0.6
v -0.2 0 0.6
v 0.1 0 0.6
v 0.4 0 0.6
v -0.5 0 0.1
v -0.2 0 0.1
v 0.1 0 0.1
v 0.4 0 0.1
v -0.5 0 -0.3
v -0.2 0 -0.3
v 0.1 0 -0.3
v 0.4 0 -0.3
v -0.5 0 -0.8
v -0.2 0 -0.8
v 0.1 0 -0.8
v 0.4 0 -0.8
v -0.8 0.2 0.7
v 0.7 0.2 0.7
v -0.7 0.2 0.6
v -0.5 0.2 0.6
v -0.2 0.2 0.6
v 0.1 0.2 0.6
v 0.2 0.2 0.6
v 0.4 0.2 0.6
v 0.7 0.2 0.6
v 0.1 0.2 0.5
v -0.7 0.2 0.4
v -0.5 0.2 0.4
v -0.2 0.2 0.4
v 5.96046e-08 0.2 0.4
v 0.1 0.2 0.2
v 0.4 0.2 0.2
v -0.5 0.2 0.1
v -0.2 0.2 0.1
v 0.1 0.2 0.1
v 0.4 0.2 0.1
v -0.5 0.2 -0.3
v -0.2 0.2 -0.3
v 0.1 0.2 -0.3
v 0.4 0.2 -0.3
v -0.5 0.2 -0.8
v -0.2 0.2 -0.8
v 0.1 0.2 -0.8
v 0.4 0.2 -0.8
v -0.8 0.2 -1
v 5.96046e-08 0.2 -1
v 0.7 0.2 -1
v -0.5 0.6 1
v -0.3 0.6 1
v 0.2 0.6 1
v 0.4 0.6 1
v -0.3 0.6 0.9
v -0.2 0.6 0.9
v 0.1 0.6 0.9
v 0.2 0.6 0.9
v -0.2 0.6 0.8
v 0.1 0.6 0.8
v -0.5 0.6 0.7
v 0.4 0.6 0.7
v -0.8 1.2 0.7
v -0.7 1.2 0.7
v -0.5 1.2 0.7
v 0.4 1.2 0.7
v 0.7 1.2 0.7
v -0.7 1.2 0.6
v -0.5 1.2 0.6
v 0.4 1.2 0.6
v 0.7 1.2 0.6
v -0.7 1.2 0.4
v -0.5 1.2 0.4
v 5.96046e-08 1.2 0.4
v 0.4 1.2 0.4
v -0.8 1.2 0.3
v -0.7 1.2 0.3
v 0.6 1.2 0.2
v 0.7 1.2 0.2
v 0.6 1.2 -0.4
v 0.7 1.2 -0.4
v -0.8 1.2 -1
v 5.96046e-08 1.2 -1
v 0.7 1.2 -1
v -0.3 1.5 1
v -0.2 1.5 1
v 0.1 1.5 1
v 0.2 1.5 1
v -0.5 1.5 0.9
v -0.3 1.5 0.9
v -0.2 1.5 0.9
v 0.1 1.5 0.9
v 0.2 1.5 0.9
v 0.4 1.5 0.9
v -0.5 1.5 0.4
v 0.4 1.5 0.4
v -0.5 1.7 1
v -0.3 1.7 1
v 0.2 1.7 1
v 0.4 1.7 1
v -0.5 1.7 0.9
v -0.3 1.7 0.9
v 0.2 1.7 0.9
v 0.4 1.7 0.9

# faces
f 3/4/1 2/4/1 1/4/1
f 4/4/1 2/4/1 3/4/1
f 5/2/1 4/2/1 3/2/1
f 5/4/1 2/4/1 4/4/1
f 6/4/1 2/4/1 5/4/1
f 7/2/1 6/2/1 5/2/1
f 7/4/1 2/4/1 6/4/1
f 8/4/1 2/4/1 7/4/1
f 9/2/1 5/2/1 3/2/1
f 9/2/1 7/2/1 5/2/1
f 9/2/1 8/2/1 7/2/1
f 10/4/1 2/4/1 8/4/1
f 10/2/1 8/2/1 9/2/1
f 11/4/1 2/4/1 10/4/1
f 16/4/1 13/4/1 12/4/1
f 17/4/1 13/4/1 16/4/1
f 18/4/1 13/4/1 17/4/1
f 19/4/1 15/4/1 14/4/1
f 20/4/1 15/4/1 19/4/1
f 23/2/1 22/2/1 21/2/1
f 26/2/1 23/2/1 21/2/1
f 26/2/1 25/2/1 24/2/1
f 26/2/1 24/2/1 23/2/1
f 27/2/1 25/2/1 26/2/1
f 28/2/1 26/2/1 21/2/1
f 29/2/1 26/2/1 28/2/1
f 34/4/1 31/4/1 30/4/1
f 35/4/1 31/4/1 34/4/1
f 36/4/1 34/4/1 30/4/1
f 37/2/1 35/2/1 34/2/1
f 37/4/1 34/4/1 36/4/1
f 38/4/1 31/4/1 35/4/1
f 38/2/1 35/2/1 37/2/1
f 39/4/1 31/4/1 38/4/1
f 40/4/1 33/4/1 32/4/1
f 41/4/1 33/4/1 40/4/1
f 44/2/1 43/2/1 42/2/1
f 45/2/1 43/2/1 44/2/1
f 46/2/2 47/2/2 48/2/2
f 48/2/2 47/2/2 49/2/2
f 50/4/2 51/4/2 54/4/2
f 54/4/2 51/4/2 55/4/2
f 55/4/2 51/4/2 56/4/2
f 52/4/2 53/4/2 57/4/2
f 57/4/2 53/4/2 58/4/2
f 59/4/2 60/4/2 63/4/2
f 63/4/2 60/4/2 64/4/2
f 63/2/2 64/2/2 65/2/2
f 64/4/2 60/4/2 66/4/2
f 65/2/2 64/2/2 66/2/2
f 66/4/2 60/4/2 67/4/2
f 61/4/2 62/4/2 68/4/2
f 68/4/2 62/4/2 69/4/2
f 70/2/2 71/2/2 72/2/2
f 70/2/2 72/2/2 75/2/2
f 73/2/2 74/2/2 75/2/2
f 72/2/2 73/2/2 75/2/2
f 75/2/2 74/2/2 76/2/2
f 70/2/2 75/2/2 77/2/2
f 77/2/2 75/2/2 78/2/2
f 79/4/2 80/4/2 82/4/2
f 80/2/2 81/2/2 82/2/2
f 82/2/2 81/2/2 83/2/2
f 83/2/2 81/2/2 84/2/2
f 84/2/2 81/2/2 85/2/2
f 84/4/2 85/4/2 86/4/2
f 85/2/2 81/2/2 86/2/2
f 86/2/2 81/2/2 87/2/2
f 86/4/2 87/4/2 88/4/2
f 87/2/2 81/2/2 88/2/2
f 88/2/2 81/2/2 89/2/2
f 79/4/2 82/4/2 90/4/2
f 82/4/2 83/4/2 90/4/2
f 83/2/2 84/2/2 91/2/2
f 90/4/2 83/4/2 91/4/2
f 79/4/2 90/4/2 92/4/2
f 90/2/2 91/2/2 93/2/2
f 92/4/2 90/4/2 93/4/2
f 88/4/2 89/4/2 94/4/2
f 93/2/2 91/2/2 94/2/2
f 91/2/2 84/2/2 94/2/2
f 84/4/2 86/4/2 94/4/2
f 86/4/2 88/4/2 94/4/2
f 89/2/2 81/2/2 95/2/2
f 94/4/2 89/4/2 95/4/2
f 95/2/2 81/2/2 96/2/2
f 99/2/3 98/2/3 97/2/3
f 100/2/3 98/2/3 99/2/3
f 101/2/3 99/2/3 97/2/3
f 102/2/3 99/2/3 101/2/3
f 103/2/3 98/2/3 100/2/3
f 104/2/3 98/2/3 103/2/3
f 105/4/3 102/4/3 101/4/3
f 106/4/3 102/4/3 105/4/3
f 107/4/3 102/4/3 106/4/3
f 108/2/3 99/2/3 102/2/3
f 108/5/3 100/5/3 99/5/3
f 109/2/3 103/2/3 100/2/3
f 109/5/3 100/5/3 108/5/3
f 110/2/3 103/2/3 109/2/3
f 111/3/3 107/3/3 106/3/3
f 111/1/3 106/1/3 105/1/3
f 112/4/3 102/4/3 107/4/3
f 112/3/3 107/3/3 111/3/3
f 113/2/3 108/2/3 102/2/3
f 113/4/3 102/4/3 112/4/3
f 114/4/3 110/4/3 109/4/3
f 114/2/3 108/2/3 113/2/3
f 114/4/3 109/4/3 108/4/3
f 115/1/3 111/1/3 105/1/3
f 115/1/3 112/1/3 111/1/3
f 116/4/3 114/4/3 113/4/3
f 116/1/3 112/1/3 115/1/3
f 116/4/3 113/4/3 112/4/3
f 117/4/3 110/4/3 114/4/3
f 117/4/3 114/4/3 116/4/3
f 118/4/3 110/4/3 117/4/3
f 119/1/3 115/1/3 105/1/3
f 119/4/3 105/4/3 101/4/3
f 120/3/3 116/3/3 115/3/3
f 120/1/3 115/1/3 119/1/3
f 121/4/3 117/4/3 116/4/3
f 121/3/3 116/3/3 120/3/3
f 122/4/3 117/4/3 121/4/3
f 123/2/3 118/2/3 117/2/3
f 123/4/3 117/4/3 122/4/3
f 124/2/3 118/2/3 123/2/3
f 125/4/3 110/4/3 118/4/3
f 125/2/3 118/2/3 124/2/3
f 126/4/3 110/4/3 125/4/3
f 127/4/3 119/4/3 101/4/3
f 127/4/3 122/4/3 121/4/3
f 127/4/3 120/4/3 119/4/3
f 127/4/3 121/4/3 120/4/3
f 128/2/3 123/2/3 122/2/3
f 128/4/3 122/4/3 127/4/3
f 129/2/3 126/2/3 125/2/3
f 129/2/3 125/2/3 124/2/3
f 131/5/3 124/5/3 123/5/3
f 131/2/3 123/2/3 128/2/3
f 131/2/3 128/2/3 127/2/3
f 132/2/3 129/2/3 124/2/3
f 132/5/3 124/5/3 131/5/3
f 132/2/3 130/2/3 129/2/3
f 133/2/3 131/2/3 127/2/3
f 133/2/3 132/2/3 131/2/3
f 134/2/3 130/2/3 132/2/3
f 134/2/3 132/2/3 133/2/3
f 138/4/3 136/4/3 135/4/3
f 138/2/3 137/2/3 136/2/3
f 139/2/3 137/2/3 138/2/3
f 140/4/3 138/4/3 135/4/3
f 140/4/3 139/4/3 138/4/3
f 141/4/3 139/4/3 140/4/3
f 142/4/3 140/4/3 135/4/3
f 144/4/3 142/4/3 135/4/3
f 144/4/3 143/4/3 142/4/3
f 145/4/3 143/4/3 144/4/3
f 148/4/3 147/4/3 146/4/3
f 149/4/3 147/4/3 148/4/3
f 152/4/3 151/4/3 150/4/3
f 153/4/3 151/4/3 152/4/3
f 154/4/3 152/4/3 150/4/3
f 155/2/3 153/2/3 152/2/3
f 155/4/3 152/4/3 154/4/3
f 156/2/3 153/2/3 155/2/3
f 159/4/3 158/4/3 157/4/3
f 160/4/3 158/4/3 159/4/3
f 163/4/3 162/4/3 161/4/3
f 164/4/3 162/4/3 163/4/3
f 165/2/4 166/2/4 167/2/4
f 167/2/4 166/2/4 168/2/4
f 169/2/4 170/2/4 171/2/4
f 171/2/4 170/2/4 172/2/4
f 173/2/4 174/2/4 175/2/4
f 175/2/4 174/2/4 176/2/4
f 176/2/4 174/2/4 177/2/4
f 178/4/4 179/4/4 180/4/4
f 180/4/4 179/4/4 181/4/4
f 182/4/4 183/4/4 184/4/4
f 184/4/4 183/4/4 185/4/4
f 186/4/4 187/4/4 188/4/4
f 188/4/4 187/4/4 189/4/4
f 190/4/4 191/4/4 192/4/4
f 192/4/4 191/4/4 193/4/4
f 194/4/4 195/4/4 196/4/4
f 196/4/4 195/4/4 197/4/4
f 196/2/4 197/2/4 198/2/4
f 198/2/4 197/2/4 199/2/4
f 204/4/5 201/4/5 200/4/5
f 205/4/5 201/4/5 204/4/5
f 206/4/5 203/4/5 202/4/5
f 207/4/5 203/4/5 206/4/5
f 212/4/5 209/4/5 208/4/5
f 213/4/5 209/4/5 212/4/5
f 214/4/5 211/4/5 210/4/5
f 215/4/5 211/4/5 214/4/5
f 218/4/5 217/4/5 216/4/5
f 219/4/5 217/4/5 218/4/5
f 220/4/5 217/4/5 219/4/5
f 221/4/5 217/4/5 220/4/5
f 222/4/5 217/4/5 221/4/5
f 223/4/5 217/4/5 222/4/5
f 224/4/5 217/4/5 223/4/5
f 225/2/5 221/2/5 220/2/5
f 226/4/5 218/4/5 216/4/5
f 226/2/5 219/2/5 218/2/5
f 227/2/5 219/2/5 226/2/5
f 228/2/5 225/2/5 220/2/5
f 229/2/5 225/2/5 228/2/5
f 230/2/5 225/2/5 229/2/5
f 231/2/5 224/2/5 223/2/5
f 232/4/5 227/4/5 226/4/5
f 233/4/5 229/4/5 228/4/5
f 234/2/5 230/2/5 229/2/5
f 235/2/5 224/2/5 231/2/5
f 236/4/5 233/4/5 232/4/5
f 236/4/5 232/4/5 226/4/5
f 237/4/5 229/4/5 233/4/5
f 237/4/5 233/4/5 236/4/5
f 238/2/5 235/2/5 234/2/5
f 238/2/5 234/2/5 229/2/5
f 239/2/5 224/2/5 235/2/5
f 239/2/5 235/2/5 238/2/5
f 240/4/5 236/4/5 226/4/5
f 241/4/5 229/4/5 237/4/5
f 242/2/5 238/2/5 229/2/5
f 243/2/5 224/2/5 239/2/5
f 244/4/5 240/4/5 226/4/5
f 244/4/5 241/4/5 240/4/5
f 244/4/5 226/4/5 216/4/5
f 245/2/5 243/2/5 242/2/5
f 245/4/5 241/4/5 244/4/5
f 245/2/5 242/2/5 229/2/5
f 245/4/5 229/4/5 241/4/5
f 246/2/5 224/2/5 243/2/5
f 246/2/5 243/2/5 245/2/5
f 251/2/5 248/2/5 247/2/5
f 251/4/5 249/4/5 248/4/5
f 252/4/5 249/4/5 251/4/5
f 253/4/5 249/4/5 252/4/5
f 254/2/5 250/2/5 249/2/5
f 254/4/5 249/4/5 253/4/5
f 255/4/5 253/4/5 252/4/5
f 255/2/5 252/2/5 251/2/5
f 256/2/5 254/2/5 253/2/5
f 256/4/5 253/4/5 255/4/5
f 257/2/5 251/2/5 247/2/5
f 257/2/5 255/2/5 251/2/5
f 257/2/5 256/2/5 255/2/5
f 258/2/5 250/2/5 254/2/5
f 258/2/5 256/2/5 257/2/5
f 258/2/5 254/2/5 256/2/5
f 259/2/6 260/2/6 264/2/6
f 260/4/6 261/4/6 264/4/6
f 264/4/6 261/4/6 265/4/6
f 262/4/6 263/4/6 266/4/6
f 266/4/6 263/4/6 267/4/6
f 264/2/6 265/2/6 268/2/6
f 259/2/6 264/2/6 268/2/6
f 268/2/6 265/2/6 269/2/6
f 266/2/6 267/2/6 271/2/6
f 259/2/6 268/2/6 272/2/6
f 269/4/6 270/4/6 273/4/6
f 272/2/6 268/2/6 273/2/6
f 268/4/6 269/4/6 273/4/6
f 270/2/6 271/2/6 274/2/6
f 271/2/6 267/2/6 274/2/6
f 274/2/6 267/2/6 275/2/6
f 270/2/6 274/2/6 276/2/6
f 274/4/6 275/4/6 276/4/6
f 276/4/6 275/4/6 277/4/6
f 272/4/6 273/4/6 278/4/6
f 273/4/6 270/4/6 279/4/6
f 278/4/6 273/4/6 279/4/6
f 270/2/6 276/2/6 279/2/6
f 276/2/6 277/2/6 279/2/6
f 279/2/6 277/2/6 280/2/6
f 281/2/6 282/2/6 286/2/6
f 282/4/6 283/4/6 287/4/6
f 286/2/6 282/2/6 287/2/6
f 283/2/6 284/2/6 288/2/6
f 287/4/6 283/4/6 288/4/6
f 288/2/6 284/2/6 289/2/6
f 286/2/6 287/2/6 291/2/6
f 289/2/6 290/2/6 291/2/6
f 288/2/6 289/2/6 291/2/6
f 287/2/6 288/2/6 291/2/6
f 285/2/6 286/2/6 291/2/6
f 291/2/6 290/2/6 292/2/6
f 293/2/6 294/2/6 297/2/6
f 297/2/6 294/2/6 298/2/6
f 295/2/6 296/2/6 299/2/6
f 299/2/6 296/2/6 300/2/6
